<?xml version="1.0" standalone="no"?>
<!DOCTYPE svg PUBLIC "-//W3C//DTD SVG 20010904//EN"
 "http://www.w3.org/TR/2001/REC-SVG-20010904/DTD/svg10.dtd">
<svg version="1.0" xmlns="http://www.w3.org/2000/svg"
 width="650.000000pt" height="700.000000pt" viewBox="0 0 650.000000 700.000000"
 preserveAspectRatio="xMidYMid meet">

<g transform="translate(0,700.000000) scale(0.100000,-0.100000)"
fill="#000000" stroke="none">
<path d="M3240 6944 c-165 -15 -334 -40 -450 -66 -733 -164 -1374 -609 -1797
-1248 -127 -193 -219 -373 -297 -585 -119 -325 -175 -630 -176 -958 0 -367
-45 -576 -202 -947 -94 -223 -207 -488 -223 -525 -49 -115 -69 -178 -73 -232
-9 -129 67 -263 181 -322 48 -24 52 -25 277 -86 208 -57 208 -57 214 -97 6
-37 39 -246 62 -388 8 -52 21 -133 29 -180 8 -47 26 -159 40 -250 14 -91 33
-210 41 -265 22 -138 66 -226 159 -320 69 -69 121 -101 230 -141 46 -18 93
-19 605 -22 607 -4 676 0 822 49 113 37 177 70 263 134 213 160 334 361 380
629 20 115 19 152 -5 203 -36 81 -137 109 -211 59 -45 -30 -53 -52 -74 -196
-9 -63 -28 -142 -41 -175 -85 -210 -291 -374 -508 -404 -105 -15 -1067 -15
-1136 0 -61 13 -150 88 -174 148 -8 22 -25 106 -36 188 -11 81 -25 171 -30
198 -6 28 -19 109 -30 180 -11 72 -29 184 -40 250 -10 66 -28 183 -41 260 -30
192 -65 258 -172 327 -50 33 -141 63 -377 124 -81 21 -140 46 -140 58 0 15 59
165 110 281 5 11 26 61 46 110 20 50 66 158 102 240 108 253 153 381 191 550
35 150 41 218 51 510 10 300 28 452 76 632 14 54 30 112 34 128 8 31 40 121
58 165 6 14 19 48 31 76 56 141 161 335 251 468 280 412 718 772 1155 949 353
143 637 200 1010 201 401 1 761 -79 1123 -250 306 -145 532 -311 803 -589 284
-293 522 -724 627 -1140 80 -316 100 -608 62 -930 -38 -329 -95 -530 -243
-855 -14 -30 -62 -116 -107 -190 -174 -285 -198 -328 -232 -405 -37 -83 -57
-145 -91 -280 -19 -77 -20 -117 -24 -983 l-4 -903 39 -40 c40 -39 59 -45 132
-39 35 2 88 40 99 70 6 15 12 355 14 850 4 720 7 837 22 920 30 170 102 354
185 475 154 223 303 526 380 770 101 321 135 552 135 905 -1 417 -67 755 -214
1105 -33 77 -133 276 -179 355 -337 580 -895 1043 -1542 1278 -185 67 -418
122 -635 148 -120 15 -450 26 -535 18z"/>
<path d="M3115 6166 c-323 -65 -602 -286 -743 -588 -17 -36 -34 -78 -38 -92
-9 -37 -21 -43 -104 -49 -150 -13 -275 -56 -405 -142 -224 -148 -369 -371
-406 -620 -34 -236 14 -467 135 -654 142 -219 408 -381 667 -407 l67 -7 28
-71 c66 -169 151 -267 305 -354 110 -62 185 -75 457 -78 226 -2 248 -4 305
-25 77 -29 160 -108 202 -194 l30 -60 3 -280 c3 -256 5 -283 23 -311 29 -48
66 -68 125 -67 59 0 94 20 125 69 21 34 21 42 16 337 -5 316 -7 335 -55 437
-67 143 -169 249 -307 319 -112 56 -156 63 -445 70 -246 6 -269 8 -314 29
-149 68 -232 216 -207 370 26 164 148 280 311 297 115 13 165 52 176 137 6 54
-17 103 -66 136 -32 22 -42 24 -125 19 -154 -9 -278 -64 -398 -176 -43 -40
-76 -84 -129 -171 -8 -14 -23 -49 -34 -79 -10 -29 -25 -56 -33 -59 -18 -7
-139 23 -206 51 -158 65 -291 211 -346 379 -20 62 -24 92 -24 198 1 104 5 136
24 190 61 173 194 317 352 381 72 29 173 54 187 45 5 -3 12 -37 14 -75 11
-146 108 -217 217 -159 70 37 81 69 81 222 0 153 15 226 72 343 45 92 141 211
215 266 72 53 183 107 266 128 90 23 250 25 341 4 120 -28 279 -115 359 -197
39 -40 119 -153 147 -208 16 -31 44 -70 61 -85 33 -27 34 -27 134 -20 226 15
438 -75 560 -237 101 -135 145 -285 130 -448 -8 -89 -23 -137 -77 -247 -33
-66 -40 -90 -35 -118 8 -48 41 -92 89 -116 38 -19 41 -20 91 -3 59 19 83 37
103 76 16 32 51 37 61 11 4 -10 19 -36 34 -58 44 -67 69 -155 69 -248 0 -153
-47 -263 -157 -368 -102 -97 -217 -136 -376 -126 -72 5 -100 12 -160 41 -89
43 -159 102 -208 179 -42 64 -83 179 -74 206 3 10 28 36 55 58 70 57 124 125
164 208 40 81 56 157 56 265 0 121 -22 168 -95 201 -33 15 -48 16 -85 8 -87
-20 -114 -67 -115 -199 -1 -146 -48 -228 -161 -285 -48 -24 -70 -29 -129 -29
-88 0 -134 22 -228 110 -65 61 -69 64 -119 64 -84 0 -135 -43 -152 -129 -18
-96 142 -254 311 -308 41 -12 96 -23 124 -23 70 0 85 -11 99 -72 51 -210 209
-411 398 -503 244 -120 481 -120 723 -1 182 90 317 248 390 457 18 52 23 92
27 215 4 133 1 160 -18 230 -40 144 -104 247 -229 369 l-82 80 6 70 c7 76 -14
232 -42 320 -116 363 -465 633 -824 636 -36 1 -70 4 -75 7 -5 4 -27 32 -48 62
-166 235 -382 382 -644 440 -101 23 -318 25 -417 6z"/>
<path d="M3189 5297 c-93 -28 -146 -59 -231 -136 -80 -74 -113 -133 -106 -195
7 -58 34 -92 87 -111 84 -29 117 -17 198 68 118 125 264 141 401 44 30 -22 52
-50 77 -100 32 -63 35 -78 35 -156 0 -106 18 -142 87 -173 56 -25 101 -20 148
16 48 37 58 78 53 215 -6 128 -21 180 -82 276 -144 225 -413 327 -667 252z"/>
</g>
</svg>
